<?xml version="1.0" standalone="no"?>
<!DOCTYPE svg PUBLIC "-//W3C//DTD SVG 20010904//EN"
 "http://www.w3.org/TR/2001/REC-SVG-20010904/DTD/svg10.dtd">
<svg version="1.0" xmlns="http://www.w3.org/2000/svg"
 width="275.000000pt" height="183.000000pt" viewBox="0 0 275.000000 183.000000"
 preserveAspectRatio="xMidYMid meet">
<metadata>
Created by potrace 1.10, written by Peter Selinger 2001-2011
</metadata>
<g transform="translate(0.000000,183.000000) scale(0.100000,-0.100000)"
fill="#000000" stroke="none">
<path d="M1313 1718 c-41 -13 -45 -37 -5 -31 56 8 103 26 90 35 -17 10 -45 9
-85 -4z"/>
<path d="M1430 1700 c0 -5 9 -10 20 -10 30 0 13 -30 -21 -37 -16 -3 -29 -10
-29 -15 0 -5 6 -7 13 -4 6 2 31 10 54 17 24 6 41 15 38 19 -3 5 -2 10 2 13 5
2 3 2 -4 1 -6 -2 -17 4 -23 12 -14 16 -50 19 -50 4z"/>
<path d="M1568 1658 c9 -9 9 -15 0 -25 -10 -12 -6 -13 18 -7 16 4 31 8 33 10
8 7 -29 34 -45 34 -14 0 -15 -3 -6 -12z"/>
<path d="M1177 1624 c-4 -4 -7 -22 -7 -41 0 -33 8 -38 50 -34 35 4 42 10 28
25 -9 10 -15 11 -20 2 -6 -8 -8 -7 -8 2 0 7 -4 11 -9 8 -5 -4 -13 5 -18 20 -5
14 -12 22 -16 18z"/>
<path d="M1637 1613 c9 -25 39 -53 58 -53 20 0 19 36 -1 44 -12 5 -15 2 -10
-9 3 -9 2 -13 -4 -10 -6 3 -10 12 -10 20 0 7 -7 16 -16 19 -23 9 -24 8 -17
-11z"/>
<path d="M1748 1555 c-10 -10 13 -55 28 -55 10 0 24 21 24 36 0 11 -30 2 -31
-8 -1 -7 -4 -3 -8 10 -3 13 -9 21 -13 17z"/>
<path d="M1301 1534 c7 -8 18 -13 26 -10 8 3 12 2 9 -3 -8 -12 64 -30 99 -25
26 4 32 1 45 -28 8 -18 20 -32 25 -31 6 1 14 -5 18 -13 4 -8 15 -14 22 -14 8
0 15 -4 15 -9 0 -13 37 -24 51 -15 8 4 7 9 -2 16 -11 7 -9 8 6 6 12 -2 21 -14
26 -34 3 -17 14 -43 25 -57 25 -34 80 -70 93 -62 6 3 11 1 11 -4 0 -6 8 -11
18 -11 13 0 14 2 3 9 -11 7 -11 9 0 14 8 3 3 6 -11 6 -26 1 -66 21 -42 21 6 0
12 5 12 11 0 7 -9 9 -21 6 -25 -7 -49 1 -49 15 0 6 7 5 15 -2 24 -20 27 -6 5
18 -12 12 -27 19 -36 15 -10 -4 -15 -1 -14 8 1 8 2 25 1 38 -1 21 -5 23 -40
19 -22 -2 -37 0 -35 4 3 5 -3 8 -13 8 -10 0 -27 14 -38 31 -23 35 -68 59 -116
62 -19 1 -40 6 -47 11 -7 4 -26 9 -43 11 -27 4 -29 2 -18 -11z"/>
<path d="M1850 1485 c0 -17 26 -55 37 -55 11 0 9 8 -7 30 -20 28 -30 36 -30
25z"/>
<path d="M1925 1393 c-3 -10 -1 -19 4 -21 6 -2 9 -8 5 -13 -6 -10 19 -13 28
-4 7 7 -14 55 -23 55 -4 0 -10 -8 -14 -17z"/>
<path d="M1993 1329 c15 -11 27 -28 27 -37 0 -13 -3 -12 -15 4 -8 10 -15 14
-15 7 0 -18 29 -43 51 -43 18 0 18 1 -2 38 -23 40 -36 52 -59 52 -9 -1 -5 -8
13 -21z"/>
<path d="M1806 1236 c-11 -58 38 -127 101 -142 30 -8 38 -1 24 23 -6 11 -11
13 -11 5 0 -7 -5 -10 -10 -7 -6 4 -8 10 -5 15 7 11 -45 51 -57 44 -5 -4 0 -11
13 -18 12 -6 24 -17 27 -25 3 -8 -8 -4 -26 9 -19 14 -28 28 -24 38 3 9 1 13
-5 9 -14 -9 -12 25 2 35 6 5 5 8 -3 8 -7 0 -11 4 -8 8 2 4 1 14 -3 21 -6 9
-11 1 -15 -23z"/>
<path d="M2092 1210 c-2 -28 11 -54 23 -48 5 1 15 -16 24 -39 8 -24 23 -46 33
-49 10 -3 18 -10 18 -16 0 -5 -7 -8 -15 -4 -17 6 -20 -9 -4 -20 6 -3 15 -1 19
6 5 9 9 9 14 1 4 -6 2 -11 -3 -11 -6 0 -11 -12 -11 -26 0 -14 4 -23 10 -19 6
4 8 11 5 16 -4 5 -2 9 4 9 6 0 8 -14 6 -32 -3 -20 -2 -26 2 -16 8 17 36 10 32
-8 -4 -23 2 -45 11 -39 13 8 5 53 -13 74 -8 9 -18 26 -21 38 -4 12 -20 33 -37
47 -16 14 -29 35 -29 48 -1 24 -31 68 -48 68 -6 0 -13 10 -15 23 -4 21 -4 20
-5 -3z"/>
<path d="M1964 1057 c-5 -12 -15 -21 -21 -20 -16 3 15 -56 46 -89 28 -29 81
-48 81 -29 0 6 -4 11 -10 11 -5 0 -10 7 -10 15 0 8 -7 15 -16 15 -14 0 -15 -2
-3 -17 13 -16 12 -17 -4 -4 -10 8 -16 20 -13 27 3 8 -4 20 -16 28 -12 9 -18
21 -15 30 4 9 3 25 -1 36 -7 19 -8 19 -18 -3z"/>
<path d="M2063 874 c-14 -15 -17 -62 -5 -81 5 -8 13 -9 22 -3 12 8 13 13 3 28
-8 13 -8 23 -1 30 6 6 7 16 2 25 -8 13 -11 13 -21 1z"/>
<path d="M2263 873 c0 -10 6 -23 13 -30 7 -8 11 -28 8 -49 -3 -22 -1 -33 6
-29 5 3 10 -1 10 -9 0 -9 -5 -16 -10 -16 -7 0 -7 -6 0 -20 8 -15 7 -19 -2 -16
-7 1 -10 1 -5 -1 15 -9 6 -21 -25 -37 -18 -9 -48 -26 -65 -36 -28 -17 -33 -17
-33 -4 0 8 -4 12 -10 9 -5 -3 -10 1 -10 10 0 9 -4 14 -9 10 -5 -3 -12 5 -14
17 l-4 23 -2 -22 c0 -13 -5 -23 -11 -23 -5 0 -10 -9 -10 -19 0 -15 10 -21 40
-26 39 -7 110 11 110 27 0 4 5 8 11 8 18 0 58 51 64 82 4 15 2 42 -4 60 -5 18
-14 48 -18 67 -9 37 -30 53 -30 24z"/>
<path d="M2084 775 c-18 -14 -18 -15 18 -49 21 -19 40 -31 43 -26 3 5 -5 17
-17 27 -24 19 -30 43 -13 55 7 5 6 8 -1 8 -5 0 -19 -7 -30 -15z"/>
<path d="M1153 628 c37 -35 67 -68 67 -74 0 -13 30 -28 38 -19 3 3 0 5 -6 5
-7 0 -12 7 -12 15 0 8 -9 20 -20 27 -11 7 -20 17 -20 23 -1 20 -38 54 -75 69
-37 16 -36 14 28 -46z"/>
<path d="M1031 608 c-13 -25 -58 -51 -73 -42 -5 3 -21 3 -35 -1 -26 -6 -27
-11 -11 -100 2 -12 -2 -19 -9 -18 -7 2 -13 -3 -13 -11 0 -7 -7 -19 -15 -26 -9
-7 -13 -20 -10 -28 4 -10 0 -12 -10 -8 -18 7 -174 -80 -182 -101 -11 -28 8
-25 88 11 44 21 84 34 87 31 4 -4 -11 -40 -33 -82 -51 -95 -50 -92 -25 -86 22
6 76 67 125 142 17 25 43 52 59 60 25 12 33 11 63 -3 18 -9 38 -16 44 -16 15
0 41 70 36 96 -2 13 -1 21 4 18 4 -2 12 3 17 11 4 9 18 17 29 18 12 0 21 4 21
7 -2 18 4 23 12 10 7 -12 12 -12 22 -2 9 9 8 12 -7 13 -11 1 -25 1 -31 0 -5 0
-26 19 -44 45 -29 38 -36 43 -46 30 -6 -9 -15 -12 -20 -8 -4 4 -2 -1 5 -10 7
-10 17 -15 22 -13 4 3 22 -8 38 -24 28 -27 27 -52 -1 -35 -7 4 -8 3 -4 -4 4
-7 4 -12 -1 -12 -4 0 -19 -10 -33 -23 -14 -12 -20 -18 -13 -13 18 12 17 -15
-2 -40 -8 -10 -15 -28 -15 -39 -1 -17 -3 -17 -11 5 -6 13 -7 35 -4 47 4 16 1
23 -10 23 -19 0 -19 14 0 30 21 17 15 54 -9 58 -11 3 -26 -4 -34 -14 -10 -14
-16 -15 -19 -6 -3 6 -14 12 -26 12 -12 0 -28 4 -36 9 -9 6 -3 10 20 13 19 3
35 2 37 -3 2 -5 9 -3 16 4 20 21 66 84 66 90 0 15 -17 6 -29 -15z m-8 -145
c-9 -7 -21 -14 -27 -16 -7 -2 -4 -10 7 -21 19 -20 22 -32 7 -41 -6 -4 -9 -1
-8 6 2 6 -3 14 -11 17 -8 3 -11 0 -7 -7 4 -6 1 -11 -8 -11 -8 0 -19 -7 -24
-16 -5 -9 -13 -17 -18 -17 -5 -1 -8 -5 -6 -10 1 -4 -4 -6 -10 -5 -7 2 -12 -3
-10 -10 1 -8 -2 -11 -9 -6 -9 5 -10 2 -6 -10 6 -14 3 -15 -13 -6 -21 11 -28
25 -7 15 6 -4 3 1 -7 9 -18 15 -15 21 9 16 5 -1 7 2 2 6 -9 9 43 65 55 58 4
-3 8 0 8 6 0 6 5 8 12 4 6 -4 9 -3 5 2 -3 5 1 20 9 34 7 14 13 19 14 13 0 -7
7 -13 16 -13 8 0 12 5 9 10 -11 17 5 31 20 17 12 -10 11 -14 -2 -24z"/>
<path d="M607 254 c-15 -8 -25 -19 -22 -24 13 -21 77 2 69 25 -7 18 -11 18
-47 -1z"/>
<path d="M748 123 c-7 -17 -2 -56 7 -60 12 -3 37 46 29 58 -6 11 -32 12 -36 2z"/>
</g>
</svg>
