<?xml version="1.0" standalone="no"?>
<!DOCTYPE svg PUBLIC "-//W3C//DTD SVG 20010904//EN"
 "http://www.w3.org/TR/2001/REC-SVG-20010904/DTD/svg10.dtd">
<svg version="1.0" xmlns="http://www.w3.org/2000/svg"
 width="80.000000pt" height="53.000000pt" viewBox="0 0 80.000000 53.000000"
 preserveAspectRatio="xMidYMid meet">

<g transform="translate(0.000000,53.000000) scale(0.100000,-0.100000)"
fill="#000000" stroke="none">
<path d="M385 502 c-58 -12 -58 -46 0 -63 25 -7 45 -17 45 -21 0 -3 9 -10 21
-13 49 -16 159 -168 159 -219 0 -22 33 -20 54 3 16 17 16 25 6 58 -42 130
-202 273 -285 255z"/>
<path d="M279 173 c-9 -2 -19 -16 -22 -32 -4 -19 -17 -33 -46 -47 -23 -10 -41
-22 -41 -26 0 -11 7 -10 40 7 33 17 38 10 15 -21 -8 -10 -15 -22 -15 -26 0
-18 17 -5 44 33 20 28 34 39 46 36 12 -3 22 4 29 19 6 13 7 24 2 24 -5 0 -12
-6 -14 -12 -3 -8 -6 -6 -6 5 -1 9 -6 17 -12 17 -8 0 -8 5 1 15 12 15 9 16 -21
8z"/>
</g>
</svg>
