<?xml version="1.0" standalone="no"?>
<!DOCTYPE svg PUBLIC "-//W3C//DTD SVG 20010904//EN"
 "http://www.w3.org/TR/2001/REC-SVG-20010904/DTD/svg10.dtd">
<svg version="1.0" xmlns="http://www.w3.org/2000/svg"
 width="200.000000pt" height="141.000000pt" viewBox="0 0 200.000000 141.000000"
 preserveAspectRatio="xMidYMid meet">

<g transform="translate(0.000000,141.000000) scale(0.100000,-0.100000)"
fill="#000000" stroke="none">
<path d="M785 1393 c4 -10 10 -27 13 -38 3 -11 16 -30 30 -41 18 -16 21 -23
11 -27 -11 -4 -11 -6 1 -7 28 -2 60 -37 60 -67 0 -16 9 -39 20 -51 11 -12 20
-26 20 -32 0 -5 4 -10 10 -10 5 0 18 -10 30 -22 13 -14 20 -17 20 -8 0 7 3 11
6 7 12 -12 -7 -28 -21 -17 -9 7 -16 6 -26 -7 -13 -17 -13 -17 5 -3 18 14 18
13 11 -10 -8 -24 -22 -40 -38 -40 -5 0 -5 5 -2 10 10 16 -1 11 -16 -7 -10 -11
-10 -14 -1 -9 17 10 15 -9 -3 -24 -9 -7 -14 -19 -11 -26 6 -16 -22 -40 -44
-36 -9 1 -25 -7 -35 -18 -10 -11 -24 -20 -31 -20 -7 0 -21 -11 -32 -25 -11
-14 -24 -25 -30 -25 -5 0 -26 -19 -46 -42 -43 -51 -47 -94 -14 -141 13 -18 23
-34 23 -36 0 -3 10 -5 23 -6 17 0 29 11 48 42 13 23 30 46 37 50 7 4 20 20 30
36 10 15 26 27 37 27 10 0 22 5 25 10 11 17 38 12 31 -6 -3 -9 -9 -28 -13 -42
-6 -25 -5 -26 12 -12 17 13 18 13 13 -1 -4 -9 -1 -16 8 -16 21 0 25 26 9 57
-8 16 -15 31 -15 35 0 12 97 4 116 -10 10 -8 25 -15 32 -15 7 0 30 -11 51 -26
l39 -25 35 20 c19 10 39 16 43 11 5 -5 23 -10 39 -12 18 -2 30 -9 30 -17 0 -8
11 -18 25 -22 14 -4 38 -14 54 -22 25 -13 27 -17 13 -23 -25 -9 -21 -20 16
-35 17 -7 40 -24 51 -37 10 -13 25 -21 33 -18 8 3 29 -9 50 -29 20 -19 31 -35
24 -35 -9 0 -9 -3 1 -13 20 -20 94 -38 124 -31 21 5 25 4 19 -6 -6 -10 -4 -12
8 -7 10 3 17 2 17 -4 0 -7 16 -10 40 -7 26 2 41 -1 44 -9 3 -7 13 -13 21 -13
9 0 14 -4 11 -9 -9 -13 22 -22 51 -15 17 5 24 3 20 -3 -4 -6 -20 -13 -36 -16
-16 -3 -36 -13 -45 -22 -9 -9 -21 -13 -27 -9 -8 5 -8 1 0 -14 13 -24 65 -44
96 -36 15 4 24 0 28 -10 4 -10 1 -16 -8 -16 -8 0 -15 -4 -15 -10 0 -5 7 -10
15 -10 8 0 12 -6 9 -14 -3 -8 3 -16 15 -19 l21 -5 0 604 0 604 -611 0 c-578 0
-611 -1 -604 -17z m262 -318 c0 -8 -3 -13 -5 -10 -3 3 -12 -1 -21 -7 -10 -8
-9 -4 3 10 23 26 23 26 23 7z m-47 -19 c0 -3 -4 -8 -10 -11 -5 -3 -10 -1 -10
4 0 6 5 11 10 11 6 0 10 -2 10 -4z m140 -36 c0 -5 -2 -10 -4 -10 -3 0 -8 5
-11 10 -3 6 -1 10 4 10 6 0 11 -4 11 -10z m-168 -29 c-7 -4 -12 -14 -10 -22 2
-8 -7 -15 -19 -17 -13 -2 -23 1 -23 6 0 11 40 41 55 41 6 1 4 -3 -3 -8z m88
-12 c0 -5 3 -8 8 -7 4 0 23 -6 42 -15 35 -16 35 -16 7 -17 -15 0 -30 6 -33 14
-4 10 -13 12 -32 7 -35 -9 -62 -3 -62 15 0 8 5 14 11 14 5 0 7 -4 4 -10 -4 -6
5 -10 22 -9 17 1 21 3 10 6 -9 2 -15 8 -12 13 7 11 35 2 35 -11z m95 12 c3 -5
2 -12 -3 -15 -5 -3 -9 1 -9 9 0 17 3 19 12 6z m20 -69 c-3 -3 -11 0 -18 7 -9
10 -8 11 6 5 10 -3 15 -9 12 -12z m-206 -6 c7 -8 8 -17 3 -20 -6 -3 -12 3 -15
14 -6 24 -4 25 12 6z m-69 -30 c-14 -14 -24 0 -16 21 6 15 8 15 16 3 6 -9 5
-19 0 -24z m-59 -8 c-9 -26 -31 -36 -31 -14 0 12 23 34 37 36 1 0 -1 -10 -6
-22z m396 -20 c-3 -8 -6 -5 -6 6 -1 11 2 17 5 13 3 -3 4 -12 1 -19z m-444 -5
c3 -5 -4 -16 -13 -26 -21 -22 -39 -5 -20 18 14 16 26 19 33 8z m462 -23 c-3
-6 1 -13 9 -16 9 -3 14 -10 11 -14 -3 -5 2 -16 11 -24 8 -9 11 -16 5 -16 -20
0 -26 5 -23 19 3 13 1 13 -12 2 -13 -11 -17 -11 -22 2 -5 15 11 57 22 57 3 0
2 -5 -1 -10z m-514 -23 c-1 -12 -15 -9 -19 4 -3 6 1 10 8 8 6 -3 11 -8 11 -12z
m-18 -21 c6 -16 -2 -28 -14 -20 -12 7 -11 34 0 34 5 0 11 -6 14 -14z m77 -6
c0 -5 -5 -10 -11 -10 -5 0 -7 5 -4 10 3 6 8 10 11 10 2 0 4 -4 4 -10z m-104
-21 c4 -7 0 -16 -9 -21 -9 -5 -14 -16 -11 -26 5 -14 4 -15 -5 -2 -6 9 -6 19
-1 24 4 4 6 15 3 22 -6 17 13 19 23 3z m46 -41 c-9 -9 -12 -7 -12 12 0 19 3
21 12 12 9 -9 9 -15 0 -24z m-42 -54 c0 -8 -4 -14 -8 -14 -4 0 -8 9 -8 19 0
11 4 17 8 15 4 -3 8 -12 8 -20z m1217 -360 c-3 -3 -12 -4 -19 -1 -8 3 -5 6 6
6 11 1 17 -2 13 -5z"/>
<path d="M1243 795 c0 -8 4 -12 9 -9 4 3 8 9 8 15 0 5 -4 9 -8 9 -5 0 -9 -7
-9 -15z"/>
<path d="M170 1353 c-13 -15 -13 -16 2 -11 18 8 48 -20 48 -44 0 -9 -6 -18
-12 -21 -10 -4 -10 -7 0 -18 10 -11 12 -10 12 4 0 10 8 17 20 17 14 0 20 7 20
23 0 55 -57 87 -90 50z"/>
<path d="M20 1321 c0 -5 7 -14 16 -22 10 -8 13 -21 9 -36 l-6 -24 22 20 c19
18 21 24 11 46 -11 23 -52 36 -52 16z"/>
<path d="M738 1079 c-23 -13 -24 -31 -2 -22 10 4 20 0 26 -10 11 -20 48 -23
48 -4 0 15 -31 47 -46 47 -5 0 -17 -5 -26 -11z"/>
<path d="M760 983 c0 -5 5 -15 10 -23 8 -12 10 -11 10 8 0 12 -4 22 -10 22 -5
0 -10 -3 -10 -7z"/>
<path d="M1113 716 c-3 -6 -3 -8 2 -4 4 4 16 3 26 -2 12 -7 20 -6 25 2 4 7 3
8 -4 4 -7 -4 -12 -3 -12 2 0 12 -30 11 -37 -2z"/>
<path d="M968 508 c-31 -11 -34 -24 -13 -52 20 -26 20 -60 0 -52 -8 3 -15 1
-15 -5 0 -6 9 -13 20 -16 15 -4 20 -14 20 -37 0 -42 10 -76 22 -76 6 0 8 14 4
35 -8 43 10 48 19 5 4 -16 11 -30 17 -30 6 0 8 11 4 28 -17 68 -17 78 -2 91
21 18 20 29 -1 27 -15 -1 -18 7 -18 44 0 49 -10 56 -57 38z m42 -43 c0 -9 -6
-12 -15 -9 -9 4 -15 0 -15 -7 0 -11 -2 -11 -10 1 -6 9 -5 17 3 22 19 12 37 9
37 -7z"/>
</g>
</svg>
